<?xml version="1.0" standalone="no"?>
<!DOCTYPE svg PUBLIC "-//W3C//DTD SVG 20010904//EN"
 "http://www.w3.org/TR/2001/REC-SVG-20010904/DTD/svg10.dtd">
<svg version="1.0" xmlns="http://www.w3.org/2000/svg"
 width="300.000000pt" height="300.000000pt" viewBox="0 0 300.000000 300.000000"
 preserveAspectRatio="xMidYMid meet">
<metadata>
Created by potrace 1.10, written by Peter Selinger 2001-2011
</metadata>
<g transform="translate(0.000000,300.000000) scale(0.100000,-0.100000)"
fill="#000000" stroke="none">
<path d="M937 2793 c18 -2 50 -2 70 0 21 2 7 4 -32 4 -38 0 -55 -2 -38 -4z"/>
<path d="M1798 2793 c89 -2 235 -2 325 0 89 1 16 3 -163 3 -179 0 -252 -2
-162 -3z"/>
<path d="M2293 2608 c-18 -19 -33 -42 -33 -51 0 -25 13 -21 35 14 29 44 45 50
91 34 21 -8 48 -15 59 -15 15 -1 12 -5 -14 -19 -19 -10 -44 -16 -55 -13 -18 5
-17 7 9 13 24 5 20 7 -22 8 l-52 1 10 -30 c12 -32 36 -40 45 -15 4 10 13 13
24 10 10 -3 21 -1 25 5 3 5 27 9 53 9 l47 -1 -38 -8 c-37 -7 -66 -32 -67 -57
0 -23 18 -14 24 11 8 32 22 36 84 24 40 -8 52 -15 54 -31 5 -33 27 -33 25 0
-2 25 -13 33 -107 80 -141 71 -157 73 -197 31z"/>
<path d="M566 2546 c3 -9 18 -19 33 -22 14 -4 34 -14 44 -22 16 -14 17 -14 12
0 -8 19 -39 42 -72 52 -18 6 -22 4 -17 -8z"/>
<path d="M1288 2553 c23 -2 59 -2 80 0 20 2 1 4 -43 4 -44 0 -61 -2 -37 -4z"/>
<path d="M1298 2513 c18 -2 45 -2 60 0 15 2 0 4 -33 4 -33 0 -45 -2 -27 -4z"/>
<path d="M1448 2513 c29 -2 74 -2 100 0 26 2 2 3 -53 3 -55 0 -76 -1 -47 -3z"/>
<path d="M495 2500 c-4 -6 5 -10 20 -10 15 0 33 -7 42 -15 20 -21 28 -12 13
14 -11 22 -63 30 -75 11z"/>
<path d="M1059 2491 c-67 -16 -99 -34 -99 -55 0 -16 -58 -49 -75 -42 -19 7
-43 -23 -26 -33 9 -6 8 -11 -4 -21 -8 -7 -15 -16 -15 -21 0 -18 36 7 98 67 51
49 79 68 126 84 67 22 102 40 76 39 -8 -1 -45 -9 -81 -18z"/>
<path d="M2200 2488 c0 -12 10 -33 23 -46 l22 -24 -24 7 c-22 7 -23 5 -17 -21
7 -32 58 -84 81 -84 8 0 20 9 27 20 15 24 24 25 44 5 9 -8 11 -15 5 -15 -20 0
-11 -29 16 -50 19 -15 35 -20 53 -15 14 3 34 7 45 7 49 3 101 66 122 146 5 23
4 23 -18 11 -22 -11 -23 -11 -10 5 8 9 11 19 8 22 -5 6 -57 -58 -57 -71 0 -16
-52 -55 -75 -55 -25 0 -85 30 -85 43 0 4 -20 16 -44 27 -43 18 -73 51 -61 69
10 18 -7 41 -31 41 -18 0 -24 -5 -24 -22z m84 -98 c8 -8 7 -9 -6 -5 -13 5 -18
2 -18 -9 0 -9 -3 -16 -6 -16 -8 0 -33 32 -34 41 0 10 52 1 64 -11z m239 -71
c-18 -18 -97 -21 -118 -5 -19 14 -18 15 13 3 29 -10 38 -9 70 10 34 19 57 14
35 -8z"/>
<path d="M2270 2503 c0 -5 21 -19 48 -32 52 -25 47 -16 -10 18 -21 13 -38 19
-38 14z"/>
<path d="M2520 2503 c-8 -3 -18 -10 -21 -16 -4 -5 -14 -5 -27 2 -12 6 -23 7
-26 2 -3 -5 6 -12 20 -15 30 -8 97 11 89 25 -7 10 -13 10 -35 2z"/>
<path d="M618 2470 c6 -8 12 -23 12 -33 0 -16 -3 -17 -15 -7 -12 10 -13 7 -9
-22 5 -29 1 -35 -30 -55 -45 -29 -57 -29 -85 1 -15 16 -21 31 -17 44 9 27 -8
36 -28 16 -19 -18 -19 -24 -6 -58 11 -29 64 -66 96 -66 29 0 74 37 74 61 0 10
5 19 10 19 20 0 60 49 60 74 0 19 -4 23 -20 19 -11 -3 -28 1 -38 8 -14 11 -15
11 -4 -1z"/>
<path d="M1785 2448 c51 -26 52 -27 35 -38 -12 -8 -12 -10 -1 -10 8 0 19 7 25
15 10 14 17 12 60 -16 42 -28 46 -34 30 -40 -17 -7 -16 -8 4 -8 38 -1 22 29
-32 61 -27 16 -51 27 -54 24 -2 -3 -17 3 -32 14 -16 11 -39 20 -52 20 -19 -1
-16 -4 17 -22z"/>
<path d="M2022 2330 c21 -28 50 -50 123 -90 79 -44 262 -292 324 -440 27 -62
55 -264 44 -320 -3 -19 -25 -86 -49 -148 -31 -82 -38 -109 -25 -98 10 9 24 35
31 59 22 68 40 101 52 89 5 -5 10 -47 10 -93 1 -100 -22 -186 -85 -307 -150
-289 -525 -497 -891 -494 -151 2 -213 11 -361 54 -60 17 -245 106 -245 118 0
5 -6 10 -13 10 -7 0 -30 16 -52 35 -70 61 -117 95 -125 90 -11 -7 -53 42 -46
54 4 6 1 9 -6 6 -8 -3 -24 8 -36 25 -13 16 -18 30 -13 30 6 0 8 7 4 16 -5 13
-7 13 -14 2 -9 -14 -10 -13 -14 18 -2 20 -33 74 -42 74 -3 0 6 -17 18 -37 13
-20 17 -33 11 -29 -16 10 -43 62 -36 69 7 7 -14 48 -37 70 -11 10 -22 36 -25
57 -4 22 -11 40 -17 40 -6 0 -8 3 -4 6 3 4 0 23 -8 43 -29 80 -38 161 -31 294
3 73 8 139 9 147 7 34 19 60 26 56 4 -3 8 14 10 36 10 171 87 326 232 471 44
43 79 80 79 83 0 33 -148 -108 -205 -196 -122 -188 -167 -340 -180 -608 -11
-247 91 -509 280 -720 26 -28 51 -50 55 -47 5 3 12 0 16 -6 5 -8 2 -10 -7 -5
-33 17 81 -80 136 -116 170 -111 428 -188 630 -188 282 0 596 136 793 345 217
229 292 527 201 797 -10 32 -19 71 -19 87 0 66 -75 235 -161 361 -55 81 -187
219 -225 235 -18 7 -53 32 -77 54 -52 49 -66 53 -35 11z m547 -960 c0 -26 -2
-31 -9 -20 -5 8 -9 35 -9 60 1 37 2 41 9 20 4 -14 8 -41 9 -60z m-1649 -727
c0 -7 -89 60 -107 80 -10 11 10 -2 45 -28 34 -27 62 -50 62 -52z"/>
<path d="M1115 2208 c-45 -32 -114 -99 -137 -133 -11 -16 7 -2 39 31 32 34 78
76 102 93 24 17 40 31 35 31 -5 0 -22 -10 -39 -22z"/>
<path d="M2110 2135 c14 -15 34 -32 45 -38 16 -8 15 -5 -5 17 -14 15 -34 32
-45 38 -16 9 -15 6 5 -17z"/>
<path d="M1418 2123 c18 -2 45 -2 60 0 15 2 0 4 -33 4 -33 0 -45 -2 -27 -4z"/>
<path d="M1134 2086 c-32 -32 -44 -57 -26 -55 4 0 24 21 46 45 45 52 30 60
-20 10z"/>
<path d="M1555 2112 c6 -5 30 -14 55 -21 42 -12 84 -32 155 -75 l30 -18 -25
22 c-14 12 -56 36 -95 54 -71 34 -139 55 -120 38z"/>
<path d="M1305 2047 c-58 -22 -74 -32 -177 -106 -46 -33 -105 -125 -122 -191
-4 -14 8 4 26 40 62 124 201 231 336 259 132 27 292 1 375 -62 35 -26 77 -50
77 -44 0 12 -113 80 -169 102 -89 35 -255 35 -346 2z"/>
<path d="M2229 2002 c5 -9 19 -26 30 -36 12 -11 21 -24 21 -31 0 -7 9 -20 20
-30 30 -27 24 -5 -8 35 -16 19 -34 45 -41 58 -6 12 -16 22 -22 22 -6 0 -6 -6
0 -18z"/>
<path d="M2547 2002 c-23 -25 -21 -49 3 -62 14 -8 26 -8 40 0 22 12 25 31 10
61 -13 24 -32 24 -53 1z"/>
<path d="M1369 1985 c-44 -8 -86 -24 -126 -48 -73 -44 -183 -152 -183 -178 0
-11 -3 -19 -7 -19 -11 0 -43 -58 -43 -76 0 -8 -7 -17 -15 -20 -10 -4 -15 -19
-14 -48 l2 -41 6 35 c13 74 131 235 220 301 64 47 154 85 216 91 17 2 26 5 20
9 -5 3 -40 0 -76 -6z"/>
<path d="M1460 1989 c0 -5 28 -9 63 -8 71 1 67 5 -10 12 -29 2 -53 0 -53 -4z"/>
<path d="M1308 1887 c-130 -49 -244 -158 -281 -269 -22 -65 -7 -60 22 7 50
115 201 226 328 241 133 16 326 -58 433 -167 97 -98 166 -256 171 -388 1 -23
5 -12 9 29 9 74 7 91 -28 180 -30 76 -97 177 -148 224 -51 47 -130 93 -210
122 -85 32 -238 42 -296 21z"/>
<path d="M1004 1845 c-10 -19 -24 -33 -31 -31 -21 9 -45 -74 -44 -159 0 -89
13 -160 40 -220 10 -22 24 -55 31 -73 7 -18 34 -56 61 -84 26 -28 47 -54 46
-57 -4 -12 39 -58 84 -88 57 -39 170 -94 229 -112 25 -7 55 -17 67 -21 25 -10
199 13 282 36 17 5 22 4 17 -4 -5 -8 1 -8 24 -1 16 6 30 17 30 25 0 17 17 19
22 2 5 -15 107 42 151 86 35 34 69 81 74 99 1 7 13 44 26 82 27 80 41 183 28
204 -7 11 -12 4 -20 -25 -6 -21 -11 -49 -11 -62 0 -13 -3 -21 -7 -19 -5 3 -9
-16 -9 -41 -1 -26 -9 -69 -18 -96 -21 -60 -79 -142 -106 -149 -29 -7 -25 2 6
13 17 7 24 15 20 25 -3 8 -1 15 4 15 6 0 10 5 10 12 0 7 -17 -5 -38 -25 -53
-52 -63 -46 -13 8 22 24 41 48 41 51 0 4 -19 -15 -42 -42 -24 -26 -42 -51 -41
-55 1 -4 -4 -10 -13 -13 -10 -4 -13 -1 -9 7 4 6 0 5 -7 -4 -21 -26 -108 -66
-173 -79 -94 -21 -259 -18 -325 4 -134 45 -250 133 -306 234 -15 26 -34 58
-43 72 -10 14 -27 50 -38 80 -55 146 -56 272 -3 373 17 33 29 61 27 63 -2 2
-12 -12 -23 -31z"/>
<path d="M2326 1835 c36 -55 63 -147 79 -270 8 -59 15 -55 15 9 0 84 -66 273
-98 284 -10 3 -8 -4 4 -23z"/>
<path d="M1365 1676 c-59 -28 -98 -66 -119 -118 -20 -47 -20 -74 -1 -129 58
-164 313 -235 443 -124 51 44 86 123 77 174 -9 52 -58 135 -97 164 -84 62
-212 76 -303 33z m200 -17 c4 -6 14 -8 22 -5 8 4 30 -3 49 -15 36 -22 47 -37
15 -19 -11 5 -30 10 -43 10 -23 0 -83 39 -61 40 6 0 15 -5 18 -11z m-196 -32
c-24 -22 -39 -48 -47 -80 -11 -43 -10 -51 12 -95 24 -47 61 -82 87 -82 7 0 21
7 30 16 17 15 20 15 43 0 14 -9 39 -16 55 -16 22 0 29 -4 25 -14 -5 -13 0 -13
32 -4 40 10 97 48 74 48 -9 0 -10 4 -2 13 6 7 13 28 16 47 2 19 9 49 14 65 l9
30 12 -23 c18 -34 16 -77 -5 -109 -10 -15 -17 -32 -16 -36 1 -4 -4 -10 -12
-13 -8 -3 -13 -11 -10 -18 7 -17 -13 -32 -66 -50 -98 -32 -206 -12 -277 52
-41 37 -89 121 -75 132 4 3 8 16 9 30 4 47 8 65 18 80 17 27 67 60 89 60 18 0
17 -4 -15 -33z m150 12 c34 -12 38 -24 17 -52 -10 -13 -21 -16 -39 -12 -52 13
-90 -70 -51 -110 13 -13 14 -21 6 -41 -15 -31 -36 -31 -67 1 -50 49 -26 183
37 210 40 17 56 18 97 4z m154 -62 c25 -20 27 -24 14 -41 -14 -19 -15 -19 -42
2 -27 21 -45 21 -45 1 0 -6 14 -22 30 -36 76 -64 -2 -146 -99 -102 -43 19 -51
38 -26 59 13 10 19 10 33 -2 53 -46 80 -20 28 28 -23 21 -36 42 -36 58 0 54
91 75 143 33z m-176 -63 c7 -18 -17 -38 -31 -24 -11 11 -1 40 14 40 6 0 13 -7
17 -16z"/>
<path d="M2160 1612 c0 -62 13 -90 23 -49 6 22 -6 93 -17 104 -3 4 -6 -21 -6
-55z"/>
<path d="M1976 1613 c4 -16 13 -39 20 -53 l13 -25 1 23 c0 22 -26 82 -35 82
-3 0 -2 -12 1 -27z"/>
<path d="M2043 1450 c0 -36 2 -50 4 -32 2 17 2 47 0 65 -2 17 -4 3 -4 -33z"/>
<path d="M2051 1329 c-6 -28 -16 -60 -22 -71 -9 -16 -8 -19 2 -16 14 5 25 38
34 101 9 54 -2 45 -14 -14z"/>
<path d="M2217 1202 c-15 -16 -25 -31 -21 -35 9 -8 -89 -100 -152 -142 -64
-43 -71 -56 -13 -23 59 33 121 90 174 160 50 64 56 86 12 40z"/>
<path d="M1305 1120 c7 -12 74 -44 80 -38 3 2 -16 14 -41 26 -25 12 -43 18
-39 12z"/>
<path d="M2317 1082 c-27 -39 -137 -141 -191 -178 -69 -47 -206 -114 -284
-138 -69 -22 -102 -26 -197 -26 -98 0 -255 21 -343 46 -9 2 3 -5 28 -17 109
-51 354 -66 488 -29 210 58 478 240 521 353 14 37 9 34 -22 -11z"/>
<path d="M2305 893 c-32 -31 -54 -54 -48 -52 21 8 124 109 111 109 -2 0 -30
-26 -63 -57z"/>
<path d="M350 875 c-19 -20 -22 -30 -14 -43 23 -36 84 -22 84 19 0 18 -25 49
-39 49 -4 0 -18 -11 -31 -25z"/>
<path d="M2518 743 c-15 -19 -3 -40 42 -70 38 -26 78 -30 86 -8 9 23 -15 46
-40 40 -15 -5 -17 -4 -7 3 11 8 5 15 -27 30 -36 17 -43 18 -54 5z"/>
<path d="M539 678 c-34 -36 -51 -66 -45 -77 4 -6 23 8 43 29 33 38 61 49 77
33 4 -5 22 -13 39 -20 30 -11 31 -12 10 -19 -13 -3 -23 -10 -23 -15 0 -12 17
-11 25 1 3 6 11 10 18 10 6 0 -5 -14 -26 -31 -34 -28 -41 -49 -16 -49 6 0 8 4
5 8 -3 5 6 19 20 31 20 17 28 19 45 10 12 -6 29 -9 39 -6 12 3 22 -4 29 -21
10 -21 8 -30 -15 -64 -35 -50 -80 -88 -104 -88 -11 0 -40 13 -65 29 -25 16
-54 27 -64 24 -15 -4 -22 5 -34 41 -9 25 -14 46 -12 46 2 0 31 -16 66 -35 34
-20 66 -34 71 -33 6 2 -12 14 -39 27 -26 13 -57 32 -68 41 -11 10 -32 20 -47
22 -35 7 -45 -19 -23 -62 9 -17 11 -30 5 -30 -17 0 -11 -17 16 -49 28 -33 63
-40 86 -17 11 11 19 10 48 -6 33 -19 33 -20 7 -14 -24 6 -28 4 -25 -11 8 -42
108 -57 108 -17 0 12 6 15 24 10 37 -9 74 45 88 127 12 75 9 88 -23 104 -111
54 -198 93 -207 93 -6 0 -21 -10 -33 -22z"/>
<path d="M585 639 c-25 -7 -30 -13 -29 -36 0 -16 3 -27 5 -26 52 19 76 42 47
44 -7 0 -4 4 6 8 29 11 5 19 -29 10z"/>
<path d="M2412 588 c-32 -32 14 -80 77 -82 32 -1 36 2 36 24 0 20 -10 30 -45
47 -54 26 -53 26 -68 11z"/>
<path d="M725 554 c-38 -12 -38 -12 -10 -13 17 0 37 3 45 9 24 15 7 17 -35 4z"/>
<path d="M679 521 c11 -7 8 -10 -15 -14 -25 -4 -24 -5 6 -3 36 1 45 19 13 24
-14 2 -15 1 -4 -7z"/>
<path d="M2327 499 c-35 -20 -14 -70 41 -98 29 -15 62 -5 62 18 0 24 -23 43
-44 35 -11 -4 -15 -2 -11 8 9 22 -26 49 -48 37z"/>
</g>
</svg>
